# xmcd
#
# Track frame offsets: 
#        182
#        71015
#        144415
#        155662
#        175375
#        219062
#        247685
#        277487
#        294867
#        310480
#        316132
#
# Disc length: 4340 seconds
#
# Revision: 1
# Processed by: cddbd v1.5.1PL0 Copyright (c) Steve Scherf et al.
# Submitted via: ExactAudioCopy v0.90b4
#
DISCID=a110f20b
DTITLE=Igor Markevitch, Orchestra National de la  Radiodiffusion Franc
DTITLE=aise - Stravinsky La Sacre du printemps
DYEAR=1959
DGENRE=Classical
TTITLE0=Le Sacre du Printemps - L'adoration de la terre
TTITLE1=Le Sacre du Printemps - Le sacrifice
TTITLE2=Petruchka - Danse russe
TTITLE3=Petruchka - Chez Petruchka
TTITLE4=Petruchka - La fete populaire
TTITLE5=Divertimento - Sinfonia
TTITLE6=Divertimento - Danses suisses
TTITLE7=Divertimento - Scherzo - Pas  de deuz
TTITLE8=Divertimento - Adagio
TTITLE9=Divertimento - Variation
TTITLE10=Divertimento - Coda
EXTD=
EXTT0=
EXTT1=
EXTT2=
EXTT3=
EXTT4=
EXTT5=
EXTT6=
EXTT7=
EXTT8=
EXTT9=
EXTT10=
PLAYORDER=
